<svg width="30" height="30" viewBox="0 0 30 30" fill="none" xmlns="http://www.w3.org/2000/svg">
<g clip-path="url(#clip0_406_43)">
<path d="M26.2158 0.182373H3.1459C1.4091 0.182373 0 1.59147 0 3.32827V26.3982C0 28.135 1.4091 29.5441 3.1459 29.5441H26.2158C27.9526 29.5441 29.3617 28.135 29.3617 26.3982V3.32827C29.3617 1.59147 27.9526 0.182373 26.2158 0.182373ZM18.1741 25.3299C17.6236 25.4282 17.4204 25.0874 17.4204 24.8055C17.4204 24.4517 17.4335 22.6428 17.4335 21.1812C17.4335 20.1588 17.0927 19.51 16.6929 19.1692C19.1179 18.9005 21.6739 18.5662 21.6739 14.3782C21.6739 13.1854 21.2479 12.589 20.5532 11.8222C20.6646 11.5404 21.0382 10.3803 20.4417 8.87292C19.5308 8.59111 17.4466 10.0461 17.4466 10.0461C16.5815 9.80356 15.6443 9.67903 14.7202 9.67903C13.796 9.67903 12.8588 9.80356 11.9937 10.0461C11.9937 10.0461 9.90957 8.59111 8.9986 8.87292C8.40217 10.3738 8.76919 11.5338 8.88715 11.8222C8.19243 12.589 7.86472 13.1854 7.86472 14.3782C7.86472 18.5465 10.3093 18.9005 12.7343 19.1692C12.4197 19.451 12.1379 19.936 12.0396 20.6307C11.417 20.9125 9.82436 21.3975 8.87406 19.7197C8.27764 18.6842 7.20281 18.599 7.20281 18.599C6.14105 18.5858 7.13068 19.2675 7.13068 19.2675C7.83855 19.5952 8.33662 20.8535 8.33662 20.8535C8.97236 22.8001 12.0134 22.1447 12.0134 22.1447C12.0134 23.0556 12.0265 24.5369 12.0265 24.8055C12.0265 25.0874 11.8299 25.4282 11.2728 25.3299C6.94717 23.8815 3.91926 19.7656 3.91926 14.955C3.91926 8.93848 8.52013 4.37035 14.5367 4.37035C20.5532 4.37035 25.4293 8.93848 25.4293 14.955C25.4359 19.7656 22.4997 23.888 18.1741 25.3299ZM11.7447 21.3254C11.6201 21.3516 11.5022 21.2992 11.4891 21.214C11.476 21.1157 11.5612 21.0305 11.6857 21.0043C11.8102 20.9912 11.9282 21.0436 11.9413 21.1288C11.9609 21.214 11.8758 21.2992 11.7447 21.3254ZM11.1221 21.2664C11.1221 21.3516 11.0237 21.4237 10.8927 21.4237C10.7485 21.4369 10.6502 21.3647 10.6502 21.2664C10.6502 21.1812 10.7485 21.1092 10.8795 21.1092C11.0041 21.096 11.1221 21.1681 11.1221 21.2664ZM10.2242 21.1944C10.198 21.2795 10.0669 21.3188 9.95547 21.2795C9.83094 21.2533 9.74572 21.155 9.77196 21.0698C9.79813 20.9846 9.92923 20.9453 10.0407 20.9715C10.1717 21.0109 10.2569 21.1092 10.2242 21.1944ZM9.41802 20.8404C9.35904 20.9125 9.23451 20.8994 9.13621 20.8011C9.03791 20.7159 9.01168 20.5914 9.07723 20.5324C9.13621 20.4603 9.26074 20.4734 9.35904 20.5717C9.44426 20.6569 9.477 20.788 9.41802 20.8404ZM8.8216 20.244C8.76262 20.2833 8.65123 20.244 8.57911 20.1457C8.50704 20.0474 8.50704 19.936 8.57911 19.8901C8.65123 19.8311 8.76262 19.877 8.8216 19.9753C8.89372 20.0736 8.89372 20.1916 8.8216 20.244ZM8.3956 19.6083C8.33662 19.6672 8.23832 19.6345 8.16626 19.5689C8.09413 19.4837 8.08104 19.3854 8.14002 19.3396C8.199 19.2806 8.2973 19.3134 8.36943 19.3789C8.44149 19.4641 8.45457 19.5624 8.3956 19.6083ZM7.95651 19.1233C7.93028 19.1823 7.84506 19.1954 7.773 19.1495C7.68779 19.1102 7.64847 19.0381 7.6747 18.9791C7.70087 18.9398 7.773 18.9201 7.85821 18.9529C7.94336 18.9988 7.98274 19.0709 7.95651 19.1233Z" fill="white"/>
</g>
<defs>
<clipPath id="clip0_406_43">
<rect width="29.3617" height="30" fill="white"/>
</clipPath>
</defs>
</svg>
