<svg width="82" height="30" viewBox="0 0 82 30" fill="none" xmlns="http://www.w3.org/2000/svg">
<g clip-path="url(#clip0_406_45)">
<mask id="mask0_406_45" style="mask-type:luminance" maskUnits="userSpaceOnUse" x="0" y="0" width="82" height="30">
<path d="M81.25 0H0V30H81.25V0Z" fill="white"/>
</mask>
<g mask="url(#mask0_406_45)">
<path d="M68.9597 4.55791C71.3586 7.72253 70.2037 12.7288 66.2062 15.7239C62.2081 18.719 57.0495 18.443 54.6509 15.2784C52.2522 12.1138 53.4071 7.10747 57.4047 4.11237C61.4022 1.11726 66.5613 1.39332 68.9597 4.55791Z" fill="white" stroke="white"/>
<path d="M68.9597 4.55791C71.3586 7.72253 70.2037 12.7288 66.2062 15.7239C62.2081 18.719 57.0495 18.443 54.6509 15.2784C52.2522 12.1138 53.4071 7.10747 57.4047 4.11237C61.4022 1.11726 66.5613 1.39332 68.9597 4.55791Z" fill="white" stroke="#2D2D2D"/>
<path d="M50.2935 9.60788L64.5908 -1.10352L73.4007 10.5198L59.1034 21.2313L50.2935 9.60788Z" fill="white" stroke="#2D2D2D"/>
<path d="M66.3874 15.9632C70.4716 12.9033 71.7313 7.71623 69.2005 4.37762C66.6697 1.03899 61.3078 0.813046 57.2234 3.87296C53.1392 6.93287 51.8799 12.1199 54.4104 15.4585C56.941 18.7972 62.3033 19.0231 66.3874 15.9632Z" fill="white" stroke="#2D2D2D" stroke-width="4" stroke-miterlimit="10"/>
<path d="M49.8716 9.54869L64.6499 -1.52319L73.8227 10.5789L59.0443 21.6508L49.8716 9.54869Z" stroke="#2D2D2D" stroke-width="4" stroke-miterlimit="10"/>
<path d="M66.3874 15.9632C70.4716 12.9033 71.7313 7.71623 69.2005 4.37762C66.6697 1.03899 61.3078 0.813046 57.2234 3.87296C53.1392 6.93287 51.8799 12.1199 54.4104 15.4585C56.941 18.7972 62.3033 19.0231 66.3874 15.9632Z" stroke="#2D2D2D" stroke-width="4" stroke-miterlimit="10"/>
<path d="M50.2935 9.60788L64.5908 -1.10352L73.4007 10.5198L59.1034 21.2313L50.2935 9.60788Z" fill="#2D2D2D" stroke="#2D2D2D"/>
<path d="M66.3874 15.9632C70.4716 12.9033 71.7313 7.71623 69.2005 4.37762C66.6697 1.03899 61.3078 0.813046 57.2234 3.87296C53.1392 6.93287 51.8799 12.1199 54.4104 15.4585C56.941 18.7972 62.3033 19.0231 66.3874 15.9632Z" fill="white" stroke="#2D2D2D" stroke-width="4" stroke-miterlimit="10"/>
<path d="M49.8716 9.54869L64.6499 -1.52319L73.8227 10.5789L59.0443 21.6508L49.8716 9.54869Z" stroke="#2D2D2D" stroke-width="4" stroke-miterlimit="10"/>
<path d="M43.9944 8.26223L65.0993 -7.55005L79.7038 11.7173L58.5985 27.5296L43.9944 8.26223Z" stroke="#2D2D2D" stroke-width="4" stroke-miterlimit="10"/>
<path d="M66.3874 15.9632C70.4716 12.9033 71.7313 7.71623 69.2005 4.37762C66.6697 1.03899 61.3078 0.813046 57.2234 3.87296C53.1392 6.93287 51.8799 12.1199 54.4104 15.4585C56.941 18.7972 62.3033 19.0231 66.3874 15.9632Z" stroke="#2D2D2D" stroke-width="4" stroke-miterlimit="10"/>
<path d="M57.9412 13.7189L58.7552 12.9661C58.827 13.0442 58.9045 13.1166 58.9862 13.1814L58.9925 13.1865L58.9992 13.1913C59.1457 13.2953 59.3233 13.3638 59.5266 13.3638C59.7015 13.3638 59.8619 13.2953 59.9775 13.2084C60.2027 13.0657 60.3658 12.793 60.3412 12.4981L60.34 12.4845L60.3376 12.4709C60.2864 12.1854 60.1681 11.8892 59.9704 11.6526L58.096 9.03027L59.071 8.35167L60.7065 10.6648L60.7089 10.6686L60.7119 10.6723C60.9996 11.0537 61.2193 11.4622 61.3854 11.9134C61.466 12.2073 61.442 12.5275 61.3222 12.8147C61.1543 13.1981 60.8852 13.5163 60.5253 13.7465L60.5205 13.7495L60.5157 13.7527C60.0482 14.0769 59.6793 14.2395 59.389 14.2876L59.3869 14.2879C59.1188 14.3343 58.8291 14.29 58.5535 14.1664C58.3226 14.051 58.1156 13.9016 57.9412 13.7189ZM64.4945 5.83551L63.6447 6.50199C63.2662 6.22935 62.7311 6.21009 62.3399 6.51465L62.3255 6.52581L62.3122 6.53871L62.2924 6.55875C62.0998 6.68415 61.9662 6.86385 61.8897 7.07079C61.8037 7.30095 61.8681 7.53597 61.986 7.70031L61.9908 7.70691L61.9963 7.71333C62.0901 7.82967 62.2502 7.95021 62.4627 7.95681C62.5764 7.96707 62.6962 7.94385 62.8057 7.91277C62.9267 7.87839 63.0651 7.82529 63.218 7.75701C63.9439 7.45401 64.4747 7.29039 64.8195 7.23759L64.8274 7.23627C65.0976 7.18743 65.3757 7.21269 65.6254 7.31925L65.6272 7.31997C65.8469 7.41207 66.0365 7.57527 66.1677 7.77657L66.1707 7.78113L66.1737 7.78563C66.3452 8.02947 66.4445 8.32413 66.4572 8.63325C66.4692 8.94903 66.385 9.25329 66.2122 9.52425C65.9697 9.88467 65.6609 10.1916 65.298 10.4321L65.2938 10.4349C64.5006 10.9797 63.924 11.1552 63.5147 11.0874L63.5111 11.0868C63.1241 11.0276 62.7919 10.8611 62.5253 10.6146L63.3998 9.92679C63.5394 10.0414 63.6977 10.1308 63.8644 10.1901L63.8716 10.1926L63.8789 10.1949C64.2652 10.31 64.6697 10.2329 64.9923 9.99123C65.2029 9.84999 65.4027 9.64053 65.4876 9.35325C65.6242 8.93403 65.3913 8.47599 64.9718 8.33685C64.9694 8.33613 64.967 8.33529 64.964 8.33433C64.9273 8.32197 64.8478 8.29515 64.7582 8.29251C64.6239 8.28327 64.4693 8.30673 64.3038 8.34933C64.1292 8.39415 63.9246 8.46519 63.6887 8.56359C62.9586 8.86239 62.4248 8.95875 62.0558 8.92221C61.7104 8.88657 61.4004 8.71035 61.2205 8.43027L61.2163 8.42457L61.2126 8.41899C61.0748 8.22513 61.002 7.99239 60.9888 7.75185C60.99 7.46967 61.0646 7.19865 61.2139 6.98085C61.4732 6.61527 61.7832 6.30807 62.1582 6.06843L62.1624 6.06579L62.1666 6.06297C62.7582 5.65657 63.2427 5.48755 63.6273 5.48755C63.915 5.48755 64.2033 5.59092 64.4945 5.83551Z" fill="#2D2D2D" stroke="#2D2D2D"/>
<path d="M46.0911 11.3057L46.0938 11.309C46.5849 11.9151 47.2641 12.2096 48.121 12.2096C48.7288 12.2096 49.2655 12.0721 49.6499 11.7323C50.013 11.4562 50.2298 11.0207 50.2298 10.5652C50.2298 10.1264 50.0292 9.70601 49.6816 9.42947C49.4922 9.26279 49.2065 9.11759 48.8541 8.98709C48.4911 8.85275 48.0319 8.72501 47.4799 8.60633C45.7153 8.21477 44.5001 7.70237 43.81 7.08353L43.8063 7.08017L43.8024 7.07699C43.1213 6.50597 42.7366 5.67236 42.7631 4.78755L42.7632 4.78307V4.77858C42.7632 4.16657 42.9508 3.55423 43.2975 3.0499C43.7074 2.4662 44.2635 2.00996 44.9226 1.7559L44.9281 1.75377L44.9335 1.75142C45.6593 1.43825 46.7007 1.26465 48.0476 1.26465C49.6937 1.26465 50.8996 1.56743 51.7087 2.14395L51.7114 2.14586C52.4389 2.65211 52.9181 3.45494 53.1118 4.58552L49.8762 4.77111C49.7516 4.26768 49.5333 3.85851 49.1795 3.56798C48.7721 3.23332 48.2559 3.09036 47.636 3.09036C47.1284 3.09036 46.698 3.19987 46.3892 3.44882C46.1103 3.67107 45.9065 4.01803 45.9241 4.42082C45.9267 4.73943 46.0939 5.02101 46.3269 5.19981C46.4678 5.32431 46.6713 5.42148 46.9036 5.50343C47.1492 5.59006 47.4575 5.66995 47.8243 5.74443C49.5983 6.12347 50.8293 6.49697 51.571 6.87263C52.3147 7.24931 52.8228 7.69703 53.1239 8.20457L53.125 8.20649C53.4479 8.74151 53.6099 9.35765 53.5964 9.98891L53.5964 9.99533C53.5964 10.7573 53.3773 11.5159 52.9433 12.1496L52.9424 12.1509C52.4898 12.819 51.8594 13.3367 51.1193 13.6501L51.1164 13.6513C50.3274 13.9954 49.313 14.1815 48.0769 14.1815C45.862 14.1815 44.4239 13.7576 43.6449 12.9831C42.8963 12.2389 42.4272 11.3236 42.2798 10.2162L45.5605 10.0054C45.6599 10.5326 45.8249 10.9675 46.0911 11.3057ZM9.54631 8.79377C9.87426 8.88509 10.2089 9.04271 10.5085 9.23045C10.728 9.41255 10.9138 9.62297 11.0934 9.85643L11.0998 9.86477L11.1068 9.87263C11.3101 10.1017 11.4881 10.3597 11.6401 10.6338L13.3798 13.9769H9.4393L7.34931 10.1159L7.34877 10.1149C7.07101 9.60617 6.80842 9.21293 6.52724 9.00791L6.52182 9.00407C6.17395 8.76197 5.7602 8.64323 5.35013 8.64323H4.99738H4.69645V8.94323V13.9477H1.22699V1.49845H7.70181C8.94259 1.49845 9.87329 1.60102 10.4877 1.80462L10.4916 1.80588C11.0741 1.99016 11.5908 2.37237 11.9345 2.88491L11.9354 2.88624C12.3252 3.46083 12.5146 4.13015 12.5011 4.83125L12.5009 4.83926L12.5012 4.84728C12.5416 6.02537 11.9355 7.14647 10.9043 7.73249C10.4927 7.96433 10.0402 8.12777 9.57508 8.20937L9.54631 8.79377ZM4.69645 6.48827V6.78827H4.99738H6.71706H6.72904L6.74096 6.78731C7.12151 6.75707 7.48707 6.69677 7.85179 6.60671C8.19021 6.54731 8.48861 6.35903 8.69288 6.08279C9.17978 5.43597 9.10834 4.51923 8.51016 3.96052L8.5036 3.95443L8.49674 3.94873C8.3139 3.79725 8.0681 3.69866 7.78962 3.63647C7.50808 3.57358 7.17236 3.54336 6.79055 3.54336H4.99738H4.69645V3.84336V6.48827ZM1.68327 28.5173C0.936823 27.7623 0.489888 26.8465 0.334717 25.7348L3.61263 25.5241C3.71212 26.0514 3.87708 26.4862 4.14333 26.8245C4.61963 27.4328 5.3152 27.743 6.17323 27.743C6.78278 27.743 7.32084 27.6046 7.70548 27.2627C8.05955 26.9779 8.282 26.5611 8.282 26.0986C8.282 25.6597 8.0814 25.2394 7.73377 24.9628C7.54425 24.7961 7.25843 24.6508 6.904 24.5203C6.53909 24.3859 6.07627 24.2583 5.51708 24.1396C3.75267 23.7481 2.53755 23.2357 1.84751 22.6169L1.84377 22.6136L1.83993 22.6103C1.15874 22.0393 0.774046 21.2057 0.800612 20.3209L0.800751 20.3164V20.312C0.800751 19.6999 0.988372 19.0874 1.33513 18.5831C1.745 17.9995 2.30108 17.5433 2.96002 17.2893L2.96556 17.2871L2.97101 17.2848C3.69686 16.9716 4.73824 16.798 6.085 16.798C7.73118 16.798 8.93711 17.1008 9.74618 17.6773C10.4755 18.197 10.943 18.9898 11.1349 20.1189L7.89892 20.3045C7.7747 19.8023 7.55713 19.3939 7.20486 19.1035C6.8083 18.7643 6.27278 18.6232 5.6549 18.6383C5.15378 18.6389 4.72179 18.7465 4.41126 19.0118C4.10825 19.2419 3.9296 19.5924 3.9469 19.9836C3.9496 20.3022 4.1168 20.5837 4.34965 20.7624C4.49054 20.8869 4.69408 20.9841 4.92639 21.066C5.17192 21.1526 5.48018 21.2325 5.847 21.307C7.62104 21.686 8.85201 22.0595 9.59379 22.4353C10.3376 22.8119 10.8456 23.2596 11.1466 23.7671L11.1478 23.7691C11.471 24.3046 11.6339 24.9228 11.6339 25.5433C11.6339 26.3003 11.4028 27.0462 10.9791 27.6854C10.5266 28.353 9.89652 28.8702 9.15685 29.1834L9.1539 29.1847C8.36481 29.5288 7.35045 29.7148 6.11443 29.7148C3.9004 29.7148 2.46243 29.2912 1.68327 28.5173Z" fill="white" stroke="white"/>
<path d="M13.7796 29.1136L13.778 29.1128C12.9332 28.7335 12.1952 28.0497 11.5567 27.0481C10.9348 26.0726 10.6189 24.8038 10.6189 23.2198C10.6189 21.1088 11.1775 19.5303 12.2648 18.4492C13.3552 17.3652 14.9017 16.7979 16.9614 16.7979C18.5831 16.7979 19.8092 17.1261 20.6979 17.7369C21.5036 18.3134 22.1373 19.1742 22.5877 20.341L19.6025 20.9978C19.5137 20.757 19.3982 20.52 19.2546 20.3058L19.2519 20.3018L19.249 20.2978C18.9991 19.9499 18.6824 19.6859 18.3055 19.4904C17.9156 19.2881 17.4835 19.2081 17.0643 19.2081C16.0441 19.2081 15.241 19.6186 14.697 20.4529C14.28 21.0682 14.0883 22.0027 14.0883 23.1905C14.0883 24.6447 14.3052 25.7331 14.8172 26.3608C15.3253 26.9838 16.0356 27.2752 16.9173 27.2752C17.7529 27.2752 18.4312 27.0387 18.901 26.537L18.9044 26.5333L18.9077 26.5296C19.2915 26.0916 19.5776 25.5177 19.7664 24.8113L22.7465 25.705C22.5477 26.4532 22.1969 27.1667 21.7318 27.8046C21.2645 28.4188 20.6449 28.8984 19.9403 29.2146C19.2254 29.5287 18.3001 29.7001 17.1525 29.7001C15.7517 29.7001 14.6231 29.4985 13.7796 29.1136ZM28.1535 29.4809V17.0171H31.6082V21.2908V21.5908H31.9092H36.3479H36.6489V21.2908V17.0171H40.133V29.4809H36.6489V24.4911V24.1911H36.3479H31.9092H31.6082V24.4911V29.4809H28.1535Z" fill="white" stroke="white"/>
<path d="M52.4547 26.7629L52.4539 26.7644C51.9822 27.6748 51.2463 28.4209 50.342 28.9189C49.412 29.4295 48.245 29.7 46.8275 29.7C45.3733 29.7 44.2024 29.4708 43.2857 29.0293C42.3396 28.5587 41.5616 27.8258 41.0479 26.9288L41.0461 26.9255C40.4768 25.9593 40.1763 24.7436 40.1763 23.2489C40.1763 21.1729 40.7611 19.5918 41.881 18.4784C43.0012 17.3647 44.5921 16.7832 46.6658 16.7832C48.8015 16.7832 50.3919 17.3519 51.5107 18.4505C52.6291 19.5487 53.1994 21.0995 53.1994 23.1466C53.1994 24.6484 52.9402 25.839 52.4547 26.7629ZM44.435 26.3042L44.4374 26.3071C44.9871 26.953 45.7519 27.2752 46.6805 27.2752C47.6184 27.2752 48.3855 26.9711 48.9383 26.3217C49.4972 25.6649 49.7299 24.5608 49.7299 23.0882C49.7299 21.8335 49.4769 20.8375 48.9047 20.2006C48.3405 19.558 47.5788 19.2532 46.6569 19.2519C45.8146 19.2209 45.0106 19.583 44.455 20.2166C43.8824 20.8696 43.631 21.911 43.631 23.2636C43.631 24.6041 43.8834 25.6396 44.435 26.3042ZM70.2391 26.7629L70.2385 26.7644C69.7667 27.6748 69.0306 28.4209 68.1266 28.9189C67.1968 29.4295 66.0292 29.7 64.6118 29.7C63.1577 29.7 61.9871 29.4708 61.0699 29.0293C60.124 28.5586 59.346 27.8258 58.8324 26.9288L58.8305 26.9255C58.2613 25.9593 57.9608 24.7436 57.9608 23.2489C57.9608 21.1729 58.5456 19.5918 59.6654 18.4784C60.7858 17.3647 62.3765 16.7832 64.4505 16.7832C66.5871 16.7832 68.191 17.3525 69.2936 18.4492C70.3998 19.5487 70.9836 21.1013 70.9836 23.1466C70.9836 24.6484 70.7248 25.839 70.2391 26.7629ZM62.2195 26.3042L62.2219 26.3071C62.7714 26.953 63.5363 27.2752 64.465 27.2752C65.4026 27.2752 66.17 26.9711 66.7225 26.3217C67.2816 25.6649 67.5145 24.5608 67.5145 23.0882C67.5145 21.8335 67.2612 20.8375 66.6894 20.2005C66.1249 19.558 65.3635 19.2532 64.4415 19.2519C63.6025 19.221 62.7816 19.5805 62.2381 20.2182C61.6664 20.8714 61.4154 21.9121 61.4154 23.2636C61.4154 24.6041 61.6682 25.6396 62.2195 26.3042Z" fill="white" stroke="white"/>
<path d="M74.915 26.8661H80.9492V29.4809H71.145V17.0171H74.6141V26.5661V26.8661H74.915Z" fill="white" stroke="white"/>
</g>
</g>
<defs>
<clipPath id="clip0_406_45">
<rect width="81.25" height="30" fill="white"/>
</clipPath>
</defs>
</svg>
