<svg width="800" height="800" viewBox="0 0 800 800" fill="none" xmlns="http://www.w3.org/2000/svg">
<path d="M100 466.667V333.333C100 314.924 114.924 300 133.333 300H221.641C229.21 300 236.553 297.424 242.464 292.696L345.843 209.992C367.67 192.532 400 208.071 400 236.021V563.98C400 591.93 367.67 607.47 345.843 590.007L242.464 507.303C236.553 502.577 229.21 500 221.641 500H133.333C114.924 500 100 485.077 100 466.667Z" stroke="white" stroke-width="66.6667" stroke-linecap="round" stroke-linejoin="round"/>
<path d="M527.673 507.13C551.45 478.797 565.123 443.36 566.543 406.397C567.963 369.437 557.047 333.054 535.517 302.98" stroke="white" stroke-width="66.6667" stroke-linecap="round" stroke-linejoin="round"/>
<path d="M629.813 592.837C674.687 539.357 699.507 471.903 699.993 402.093C700.48 332.285 676.607 264.491 632.483 210.391" stroke="white" stroke-width="66.6667" stroke-linecap="round" stroke-linejoin="round"/>
</svg>
